<?xml version="1.0" encoding="UTF-8"?>
<svg width="1180px" height="670px" viewBox="0 0 1180 670" version="1.1" xmlns="http://www.w3.org/2000/svg" xmlns:xlink="http://www.w3.org/1999/xlink">
    <title>mask-background-1180-670</title>
    <g id="Page-1" stroke="none" stroke-width="1" fill="none" fill-rule="evenodd">
        <g id="mask-background-1180-670" fill="#FFF0F7" fill-rule="nonzero">
            <path d="M1180,0 L1180,670 L0,670 L0,0 L1180,0 Z M81.0221632,10 C66.7578634,10 61.5852836,11.4852098 56.3704687,14.2741233 C51.1556539,17.0630367 47.0630367,21.1556539 44.2741233,26.3704687 C41.4852098,31.5852836 40,36.7578634 40,51.0221632 L40,569.583624 C40.0427006,583.389933 41.5250514,588.489214 44.2741233,593.629531 C47.0630367,598.844346 51.1556539,602.936963 56.3704687,605.725877 C61.5852836,608.51479 66.7578634,610 81.0221632,610 L81.0221632,610 L1098.97784,610 C1113.24214,610 1118.41472,608.51479 1123.62953,605.725877 C1128.84435,602.936963 1132.93696,598.844346 1135.72588,593.629531 C1138.51479,588.414716 1140,583.242137 1140,568.977837 L1140,568.977837 L1140,51.0221632 C1140,36.7578634 1138.51479,31.5852836 1135.72588,26.3704687 C1132.93696,21.1556539 1128.84435,17.0630367 1123.62953,14.2741233 C1118.41472,11.4852098 1113.24214,10 1098.97784,10 L1098.97784,10 L81.0221632,10 Z" id="background"></path>
        </g>
    </g>
</svg>