<?xml version="1.0" encoding="UTF-8"?>
<svg width="7px" height="10px" viewBox="0 0 7 10" version="1.1" xmlns="http://www.w3.org/2000/svg" xmlns:xlink="http://www.w3.org/1999/xlink">
    <title>chevron-right</title>
    <defs>
        <path d="M3.1205,4.5355 L0.2925,1.7065 C-0.0975,1.3165 -0.0975,0.6825 0.2925,0.2925 C0.6825,-0.0975 1.3155,-0.0975 1.7065,0.2925 L5.9485,4.5355 L1.7065,8.7775 C1.3165,9.1675 0.6825,9.1675 0.2925,8.7775 C-0.0975,8.3875 -0.0975,7.7535 0.2925,7.3635 L3.1195,4.5355 L3.1205,4.5355 Z" id="path-1"></path>
    </defs>
    <g id="Page-1" stroke="none" stroke-width="1" fill="none" fill-rule="evenodd">
        <g id="Group" transform="translate(0.950500, 0.500500)">
            <g id="sh03mhc4ta-link" fill="#FFFFFF" fill-opacity="0" fill-rule="nonzero">
                <path d="M3.1205,4.5355 L0.2925,1.7065 C-0.0975,1.3165 -0.0975,0.6825 0.2925,0.2925 C0.6825,-0.0975 1.3155,-0.0975 1.7065,0.2925 L5.9485,4.5355 L1.7065,8.7775 C1.3165,9.1675 0.6825,9.1675 0.2925,8.7775 C-0.0975,8.3875 -0.0975,7.7535 0.2925,7.3635 L3.1195,4.5355 L3.1205,4.5355 Z" id="sh03mhc4ta"></path>
            </g>
            <g id="Clipped">
                <mask id="mask-2" fill="white">
                    <use xlink:href="#path-1"></use>
                </mask>

                <g id="Group" mask="url(#mask-2)" fill="#B063F5" fill-rule="nonzero">
                    <g transform="translate(-6.950500, -14.500500)" id="Path">
                        <polygon points="0 0 48 0 48 38 0 38"></polygon>
                    </g>
                </g>
            </g>
        </g>
    </g>
</svg>
